<svg width="48" height="48" viewBox="0 0 48 48" fill="none" xmlns="http://www.w3.org/2000/svg">
<rect width="48" height="48" fill="#DC1637"/>
<path d="M29 16H33C33.2652 16 33.5196 16.1054 33.7071 16.2929C33.8946 16.4804 34 16.7348 34 17V33C34 33.2652 33.8946 33.5196 33.7071 33.7071C33.5196 33.8946 33.2652 34 33 34H15C14.7348 34 14.4804 33.8946 14.2929 33.7071C14.1054 33.5196 14 33.2652 14 33V17C14 16.7348 14.1054 16.4804 14.2929 16.2929C14.4804 16.1054 14.7348 16 15 16H19V14H21V16H27V14H29V16ZM27 18H21V20H19V18H16V22H32V18H29V20H27V18ZM32 24H16V32H32V24Z" fill="white"/>
</svg>
