<svg width="32" height="32" viewBox="0 0 32 32" fill="none" xmlns="http://www.w3.org/2000/svg">
<path d="M16 4.13322L9.40001 10.7332C8.09481 12.0385 7.20599 13.7016 6.84594 15.512C6.48589 17.3225 6.67078 19.1991 7.37722 20.9045C8.08367 22.6099 9.27994 24.0675 10.8148 25.093C12.3496 26.1185 14.1541 26.6659 16 26.6659C17.8459 26.6659 19.6504 26.1185 21.1852 25.093C22.7201 24.0675 23.9163 22.6099 24.6228 20.9045C25.3292 19.1991 25.5141 17.3225 25.1541 15.512C24.794 13.7016 23.9052 12.0385 22.6 10.7332L16 4.13322ZM16 0.362549L24.4853 8.84788C26.1636 10.5261 27.3064 12.6643 27.7694 14.9921C28.2324 17.3198 27.9948 19.7326 27.0865 21.9253C26.1783 24.118 24.6402 25.9922 22.6668 27.3108C20.6934 28.6293 18.3734 29.3331 16 29.3331C13.6266 29.3331 11.3066 28.6293 9.33318 27.3108C7.35979 25.9922 5.82172 24.118 4.91346 21.9253C4.00521 19.7326 3.76756 17.3198 4.23057 14.9921C4.69358 12.6643 5.83646 10.5261 7.51467 8.84788L16 0.362549V0.362549Z" />
</svg>
