<svg width="78" height="78" viewBox="0 0 78 78" fill="none" xmlns="http://www.w3.org/2000/svg">
<path d="M38.9983 59.0024C51.4439 59.0024 62.3296 64.1739 68.25 71.8901L61.9898 74.75C57.1706 69.2337 48.6741 65.5694 38.9983 65.5694C29.3225 65.5694 20.826 69.2337 16.0068 74.75L9.75 71.8868C15.6704 64.1706 26.5526 59.0024 38.9983 59.0024ZM38.9983 3.25C43.5051 3.25 47.8273 4.97969 51.0141 8.05856C54.2009 11.1374 55.9913 15.3133 55.9913 19.6675V36.0179C55.991 40.2486 54.3003 44.3158 51.2718 47.3715C48.2432 50.4272 44.1106 52.2354 39.7358 52.419L38.9983 52.4354C34.4915 52.4354 30.1693 50.7057 26.9825 47.6268C23.7957 44.548 22.0053 40.3721 22.0053 36.0179V19.6675C22.0056 15.4368 23.6963 11.3695 26.7248 8.31388C29.7534 5.25821 33.886 3.45003 38.2608 3.26642L38.9983 3.25ZM38.9983 9.81698C36.3977 9.81684 33.8953 10.7768 32.0031 12.5005C30.111 14.2242 28.9721 16.5813 28.8195 19.0896L28.8025 19.6675V36.0179C28.8 38.582 29.8324 41.046 31.6803 42.8864C33.5283 44.7268 36.0463 45.7984 38.6991 45.8737C41.3519 45.9489 43.9306 45.0218 45.8871 43.2894C47.8437 41.5569 49.0239 39.1557 49.1771 36.5958L49.1941 36.0179V19.6675C49.1941 17.055 48.1199 14.5494 46.2078 12.7021C44.2957 10.8548 41.7024 9.81698 38.9983 9.81698Z" fill="#7A7A80"/>
</svg>
