<svg width="78" height="72" viewBox="0 0 78 72" fill="none" xmlns="http://www.w3.org/2000/svg">
<rect width="78" height="72" fill="#1B1B1F"/>
<path d="M38.9998 54.78C40.5913 54.78 41.8815 53.5891 41.8815 52.12C41.8815 50.6509 40.5913 49.46 38.9998 49.46C37.4083 49.46 36.1182 50.6509 36.1182 52.12C36.1182 53.5891 37.4083 54.78 38.9998 54.78Z" fill="#DC1637"/>
<path d="M39.0002 45.22C38.4255 45.22 37.8744 45.0093 37.4681 44.6342C37.0618 44.2591 36.8335 43.7504 36.8335 43.22V19.22C36.8335 18.6896 37.0618 18.1809 37.4681 17.8058C37.8744 17.4307 38.4255 17.22 39.0002 17.22C39.5748 17.22 40.1259 17.4307 40.5322 17.8058C40.9386 18.1809 41.1668 18.6896 41.1668 19.22V43.22C41.1668 43.7504 40.9386 44.2591 40.5322 44.6342C40.1259 45.0093 39.5748 45.22 39.0002 45.22Z" fill="#DC1637"/>
<path d="M39.0002 68C32.1438 68 25.4413 66.1232 19.7404 62.607C14.0395 59.0908 9.59619 54.0931 6.97235 48.2459C4.34852 42.3986 3.662 35.9645 4.99962 29.7571C6.33724 23.5497 9.63892 17.8479 14.4871 13.3726C19.3354 8.89732 25.5124 5.84961 32.2371 4.61489C38.9617 3.38016 45.932 4.01386 52.2665 6.43587C58.601 8.85787 64.0152 12.9594 67.8245 18.2218C71.6337 23.4841 73.6668 29.671 73.6668 36C73.6668 44.4869 70.0145 52.6263 63.5132 58.6274C57.012 64.6286 48.1944 68 39.0002 68V68ZM39.0002 8.00001C33.0008 8.00001 27.1362 9.64219 22.1479 12.7189C17.1596 15.7955 13.2717 20.1685 10.9758 25.2849C8.67997 30.4012 8.07927 36.0311 9.24969 41.4625C10.4201 46.894 13.3091 51.8831 17.5513 55.799C21.7935 59.7149 27.1984 62.3816 33.0824 63.462C38.9665 64.5424 45.0656 63.9879 50.6082 61.8686C56.1509 59.7494 60.8884 56.1606 64.2214 51.556C67.5545 46.9514 69.3335 41.5379 69.3335 36C69.3335 28.574 66.1377 21.452 60.4491 16.201C54.7605 10.95 47.0451 8.00001 39.0002 8.00001V8.00001Z" fill="#DC1637"/>
</svg>
